<svg xmlns="http://www.w3.org/2000/svg" width="567" height="715" viewBox="0 0 567 715">
  <defs>
    <style>
      .cls-1 {
        fill: #102d0a;
      }

      .cls-1, .cls-4 {
        stroke: #000;
      }

      .cls-1, .cls-3, .cls-4, .cls-5, .cls-6, .cls-7, .cls-8 {
        stroke-miterlimit: 10;
      }

      .cls-2, .cls-8 {
        fill: #be8d53;
      }

      .cls-3 {
        fill: #f7f7f7;
      }

      .cls-3, .cls-7 {
        stroke: #f7f7f7;
      }

      .cls-5 {
        fill: #563505;
        stroke: #563505;
      }

      .cls-6 {
        fill: #896238;
        stroke: #896238;
      }

      .cls-7 {
        fill: #f7f6f5;
      }

      .cls-8 {
        stroke: #be8d53;
      }

      .cls-9 {
        fill: #6abbce;
      }

      .cls-10 {
        fill: #663308;
      }

      .cls-11 {
        fill: #d3c5b6;
      }

      .cls-12 {
        fill: #e92c00;
      }
    </style>
  </defs>
  <title>mand2</title>
  <g id="ben">
    <path class="cls-1" d="M229.5,429.5l1,125s-57-2-47,14-3,26,46,20l49-6,3-104s30-12,33,5,2,97,2,97,59,9,75-3-10-33-26-34l-16-114Z"/>
  </g>
  <g id="ansigt">
    <path class="cls-2" d="M231.5,100.5s49-53,93,0c0,0,2,95-6,109s-82.62,3.36-82.62,3.36S227.5,142.5,231.5,100.5Z"/>
    <path class="cls-3" d="M293.5,134.5h15.55s3.45,20-7.55,18S293.5,134.5,293.5,134.5Z"/>
    <path class="cls-3" d="M256.5,133.5h15.55s3.45,20-7.55,18S256.5,133.5,256.5,133.5Z"/>
    <circle class="cls-4" cx="266" cy="145" r="2.5"/>
    <circle class="cls-4" cx="301" cy="143" r="2.5"/>
    <path class="cls-5" d="M299.38,126.24l.58-4.08s12.93-1.36,14.08,9.58C314,131.74,307.23,124.41,299.38,126.24Z"/>
    <path class="cls-5" d="M263.5,124.5v4s-10-1-13,5S250.5,121.5,263.5,124.5Z"/>
    <path class="cls-6" d="M278.06,165.21s-3.34-3.33-5.56,0c0,0,.56,1.11,4.44.56,0,0,2.78,2.77,4.45,0,0,0,5,0,5-.56s-3.89-3.33-5.56,0C280.83,165.21,279.17,166.88,278.06,165.21Z"/>
    <path class="cls-2" d="M231,134.73s-.89-3.73-4.6-1.73S232,156.3,232,156.3"/>
    <path class="cls-6" d="M230,139s-2-1,0,5"/>
    <path class="cls-2" d="M324.13,134.66s4.34-6.46,6.09,2.41-7.5,19.84-7.5,19.84"/>
    <path class="cls-6" d="M326,138s2,3,0,4"/>
  </g>
  <g id="Layer_6" data-name="Layer 6">
    <path class="cls-3" d="M309.5,14.5s13,3,13,5,4,8-6,9S309.5,14.5,309.5,14.5Z"/>
    <path class="cls-7" d="M300.5,13.5s-1,16-10,12-2.31-12-2.31-12Z"/>
    <path class="cls-2" d="M251.5,232.5c-4-6.78,7.38-2.7,0,0-20.14,7.38-52.5,15.5-59,40-8.53,32.13-26.83,37.73-12.69,89.26a16.13,16.13,0,0,0,4.37,7.35c10.39,10,41.92,48.39,55.32,48.39,6,0,10.76-10.52,12.49-14.3,3.16-6.92,5.68,4.74-.49.3-14.18-10.21-44.37-53.11-45-67-1-22,21-62,39-62,6.23,0-.23-.36,7-.83a16.25,16.25,0,0,0,13-24.44Z"/>
    <path class="cls-2" d="M323.5,230.5l5,45,37,36s9,87,0,89-9,49,4,29,27-100,27-100S374.5,256.5,323.5,230.5Z"/>
  </g>
  <g id="krop">
    <path class="cls-8" d="M235.5,207s-28,223-6,238.3,127,6.14,127,6.14,35-137-37-244.44Z"/>
  </g>
  <g id="trøje">
    <path class="cls-9" d="M189,261l32,54,.16-17.17,3.62,18.73L213.5,434.5l152,13L358,304.19l7,15.36L389.5,288.5l-54.94-58s-36.06,40-49.06,42-55.08-42-55.08-42Z"/>
  </g>
  <g id="Layer_5" data-name="Layer 5">
    <path class="cls-10" d="M309.53,74.5c-10.26-9-33.86-4-33.86-4s-21.55,6-28.73,4-15.39-7-15.39-7l-2.05,39,94.4,4,4.1-20S319.79,83.5,309.53,74.5Z"/>
    <path class="cls-10" d="M231,164s-.95,68.76,48.71,71.63S326.5,164,326.5,164h-2.86s0,27.7-15.28,30.56c0,0-9.55-1.91-15.28-7.64,0,0-17.19,6.69-24.83,0,0,0-16.24,10.51-18.15,10.51,0,0-19.1-3.82-15.28-33.43Z"/>
    <path class="cls-11" d="M264.5,176.5h33s-4,16-15,16S265.5,185.5,264.5,176.5Z"/>
    <path class="cls-12" d="M284.87,185.5H268.09c3,4,7.8,6.5,14.41,6.5,4.7,0,8.12-2.92,10.5-6.27Z"/>
  </g>
</svg>
