<svg xmlns="http://www.w3.org/2000/svg" width="543" height="900" viewBox="0 0 543 900">
  <defs>
    <style>
      .cls-1, .cls-4 {
        fill: #f0cea9;
      }

      .cls-2 {
        fill: #f7f7f7;
      }

      .cls-2, .cls-3 {
        stroke: #f7f7f7;
      }

      .cls-10, .cls-12, .cls-13, .cls-2, .cls-3, .cls-4, .cls-5, .cls-6, .cls-7 {
        stroke-miterlimit: 10;
      }

      .cls-3 {
        fill: #f7f6f5;
      }

      .cls-10, .cls-4, .cls-5 {
        stroke: #a58b72;
      }

      .cls-5 {
        fill: #f9f9f9;
      }

      .cls-6 {
        fill: #fff;
        stroke: #fff;
      }

      .cls-7 {
        fill: #c49749;
        stroke: #c49749;
      }

      .cls-8 {
        fill: #d8ac4f;
      }

      .cls-9 {
        fill: #cc0e2a;
      }

      .cls-10 {
        fill: none;
      }

      .cls-11, .cls-12 {
        fill: #f7d483;
      }

      .cls-12 {
        stroke: #f7d483;
      }

      .cls-13 {
        stroke: #000;
      }

      .cls-14 {
        fill: #090963;
      }

      .cls-15 {
        fill: #9b0521;
      }

      .cls-16 {
        fill: #aa001b;
      }
    </style>
  </defs>
  <title>mand1</title>
  <g id="ansigt">
    <path class="cls-1" d="M231.46,264.08c2.23-37.13,9.15-90,30-114.58,0,0,42-20,71,13,0,0,28,94,15,134s-117,8-117,8-.45-17.1,1-40.42"/>
    <path class="cls-2" d="M264.5,188.5s13,3,13,5,4,8-6,9S264.5,188.5,264.5,188.5Z"/>
    <path class="cls-3" d="M255.5,187.5s-1,16-10,12-2.31-12-2.31-12Z"/>
    <path class="cls-4" d="M260.5,219.5s7,5,0,6-16,5-19-2,16-26,16-26"/>
  </g>
  <g id="anisgt2">
    <path class="cls-5" d="M234.5,233.5s25-1,41,11,11.74,22,11.74,22-3.74,6-31.74,4-24-3-24-3Z"/>
    <polygon class="cls-6" points="235.34 266.91 234.69 234.34 226.12 231.08 229.47 264.46 235.34 266.91"/>
    <path class="cls-7" d="M253.5,172.5v4s-10-1-13,5S240.5,169.5,253.5,172.5Z"/>
    <path class="cls-7" d="M272.5,180.5l1-4s13,0,13,11C286.5,187.5,280.5,179.5,272.5,180.5Z"/>
    <path class="cls-8" d="M342.48,202.55l-34-20.05,3,28s29-11,29,20c0,0,0,23-17,19,0,0,11.83,22.21,27.41,22.6"/>
    <path class="cls-9" d="M231,268l.66-.33c20.08-9.78,53.37-14.54,55.84-3.17S231,268,231,268Z"/>
    <path class="cls-10" d="M312.5,216.5l8,27s15,0,13-18S312.5,216.5,312.5,216.5Z"/>
    <polygon class="cls-11" points="244.88 259.39 253 261.5 253 270.85 244 269.5 244.88 259.39"/>
    <polygon class="cls-12" points="231.5 259.5 231.5 267.85 240.5 268.5 240.5 262.12 240.5 259.5 231.5 259.5"/>
    <polygon class="cls-12" points="273.5 264.5 273.5 270.5 266.5 270.5 266.5 263.5 273.5 264.5"/>
    <polygon class="cls-11" points="264 262 255 262 255 271 263 271 264 262"/>
    <polygon class="cls-11" points="234.5 239.99 243.5 239.5 243.5 233.62 235 234 234.5 239.99"/>
    <polygon class="cls-11" points="243.5 242.5 253.5 243.5 253.5 235.22 243.5 233.5 243.5 242.5"/>
    <polygon class="cls-11" points="262.5 237.87 262.5 246.5 253.5 246.5 253.5 235.5 262.5 237.87"/>
    <polygon class="cls-11" points="275 247.5 269 244.5 269 240.5 274.12 244 275 247.5"/>
    <circle class="cls-13" cx="250" cy="196" r="2.5"/>
    <circle class="cls-13" cx="270" cy="197" r="2.5"/>
    <path class="cls-10" d="M234.5,233.5s55.47,1,52.74,33c0,0,2.26,9-55.74,2"/>
    <line class="cls-10" x1="244" y1="234" x2="254.5" y2="235.5"/>
  </g>
  <g id="arme">
    <path class="cls-1" d="M155.5,331.5c-6-13,11-41,11-41s13-1,13-12c0,0,5-7,13-5s-1-12-16-8,4-16,4-16,14-24-5-19-40,30-40,30-53,83-31,113c0,0,19,29.85,64,14.42s66-102.42,66-102.42S161.5,344.5,155.5,331.5Z"/>
    <path class="cls-1" d="M350.94,290S426.5,311.5,455.5,364.5s-24,88-24,88-62,41-67,37-50-12-8-43c0,0-10-15-6-15s7-2,15,9,40-34,40-34-2-37-36-47S350.94,290,350.94,290Z"/>
  </g>
  <g id="fødder">
    <path class="cls-14" d="M247.5,648.45s-98,26-107,4,12-32,12-32l-.5-112,241.46,3.26-3,102.69s23,37,14,39-113,6-114-3-4-92-4-92-10-16-34-5Z"/>
  </g>
  <g id="krop">
    <path class="cls-1" d="M226.5,294.5s-84,54-69,232c0,0,166,13,241,0,0,0-3-247-50-241C309.08,290.53,228.43,298.21,226.5,294.5Z"/>
    <path class="cls-15" d="M152.23,389.5s46.76,2.94,77.42-94c0,0,28.57,66,111.7,0,0,0-13.85,91.66,46.07,81.83L398.5,526.5H146Z"/>
  </g>
  <g id="kasket">
    <path class="cls-16" d="M373.5,202.5l-33-6-10-37c-26-32-73-12-73-12l-10,19c27-10,94,36,94,36l5,33C390.5,228.5,373.5,202.5,373.5,202.5Zm-115-40s9-12,13,1Z"/>
  </g>
</svg>
